<svg xmlns="http://www.w3.org/2000/svg" xmlns:xlink="http://www.w3.org/1999/xlink" viewBox="0 0 114.39 131.49"><defs><style>.a{isolation:isolate;}.b,.c{fill:#e94e70;}.c{stroke:#fff;stroke-miterlimit:10;}.d{fill:#fff;}.e{opacity:0.3;fill:url(#a);}.e,.f{mix-blend-mode:overlay;}.f{opacity:0.5;}</style><linearGradient id="a" x1="1243.07" y1="483.46" x2="1328.78" y2="569.16" gradientTransform="translate(1343.14 592.05) rotate(180)" gradientUnits="userSpaceOnUse"><stop offset="0" stop-color="#fff" stop-opacity="0.1"/><stop offset="0.84" stop-color="#282726"/></linearGradient></defs><title>Asset 58</title><g class="a"><path class="b" d="M58.13,3.27a1.65,1.65,0,0,0-1.91,0c-3.8,2.24-7.63,4.43-11.46,6.63Q24.44,21.63,4.09,33.32a2.52,2.52,0,0,0-1.45,2.5q.06,29.93,0,59.86A2.42,2.42,0,0,0,4,98.09c5,2.82,9.94,5.69,14.9,8.56q18.65,10.77,37.3,21.57a1.7,1.7,0,0,0,1.92,0q11.78-6.84,23.58-13.64,14.3-8.26,28.62-16.5a2.32,2.32,0,0,0,1.37-2.31c0-10,0-19.92,0-29.88s0-19.84,0-29.77a3,3,0,0,0-1.78-3q-14.77-8.43-29.49-17Q69.31,9.74,58.13,3.27Z"/><path class="c" d="M113.89,98.46c-3.07,2-6.33,3.77-9.51,5.61q-11.82,6.87-23.68,13.67-11.17,6.44-22.35,12.9a2.07,2.07,0,0,1-2.33,0q-11.31-6.56-22.64-13.07L5.81,101.66c-1.39-.8-2.76-1.63-4.17-2.4A2,2,0,0,1,.5,97.33Q.53,65.66.5,34a1.89,1.89,0,0,1,1.08-1.83Q20.36,21.36,39.1,10.53c5.4-3.11,10.81-6.21,16.18-9.38A3.14,3.14,0,0,1,58.88,1Q78.4,12.39,98,23.63l15.92,9.17Zm-2.18-32.61c0-9.92,0-19.84.05-29.77a3,3,0,0,0-1.78-3q-14.78-8.43-29.49-17Q69.32,9.7,58.13,3.24a1.64,1.64,0,0,0-1.9,0c-3.81,2.24-7.64,4.43-11.46,6.63Q24.44,21.6,4.1,33.29a2.51,2.51,0,0,0-1.45,2.5q.06,29.93,0,59.86a2.43,2.43,0,0,0,1.4,2.42c5,2.81,9.94,5.68,14.89,8.55q18.66,10.77,37.31,21.57a1.7,1.7,0,0,0,1.92,0q11.77-6.84,23.58-13.64Q96,106.28,110.37,98a2.32,2.32,0,0,0,1.37-2.31C111.69,85.77,111.71,75.81,111.71,65.85Z"/><path class="d" d="M38.79,55.11H36.71c0-.09,0-.71,0-1.84s0-2.2,0-3.2c0-.4,0-1,0-2s0-1.57,0-2a3.23,3.23,0,0,0-.62-2.19,2.41,2.41,0,0,0-1.82-.61,5.24,5.24,0,0,0-1.72.36,12.58,12.58,0,0,0-2.24,1.12V45c0,.13,0,.31,0,.52,0,.71,0,1.43,0,2.16s0,1.43,0,2.1c0,1.46,0,2.68,0,3.68s0,1.53,0,1.61H28.3c0-.09,0-.62,0-1.59s0-2.11,0-3.43c0-.44,0-1.1,0-2s0-1.54,0-2a7.75,7.75,0,0,0-.1-1.1,2.2,2.2,0,0,0-.35-.9,1.68,1.68,0,0,0-.71-.61,2.92,2.92,0,0,0-1.24-.21,4.4,4.4,0,0,0-1.72.44A16.18,16.18,0,0,0,21.93,45c0,.15,0,.71,0,1.68s0,1.76,0,2.37c0,1,0,2.3,0,3.76s0,2.24,0,2.32H19.88q0-.11,0-1.53t0-4.74c0-.72,0-1.69,0-2.91s0-2.61-.05-4.16h2.06v1.52h0a13.83,13.83,0,0,1,2.22-1.25,5.8,5.8,0,0,1,2.37-.62,4,4,0,0,1,2.16.54,3.16,3.16,0,0,1,1.23,1.37h0a16.73,16.73,0,0,1,2.79-1.42,6.16,6.16,0,0,1,2.17-.49,3.75,3.75,0,0,1,2.84,1.06,4,4,0,0,1,1,2.87c0,.93,0,1.72,0,2.35s0,1.31,0,2c0,1.47,0,2.72,0,3.74S38.79,55,38.79,55.11Z"/><path class="d" d="M55.26,48.44a8.07,8.07,0,0,1-.55,2.93,6.66,6.66,0,0,1-1.58,2.39A6.19,6.19,0,0,1,51.2,55a6.3,6.3,0,0,1-2.4.44A6.45,6.45,0,0,1,46.42,55a6.14,6.14,0,0,1-2-1.26A6.39,6.39,0,0,1,42.9,51.4a8.43,8.43,0,0,1-.08-5.77,6.55,6.55,0,0,1,1.45-2.29,6.23,6.23,0,0,1,2.06-1.42,6.49,6.49,0,0,1,2.48-.49,6.37,6.37,0,0,1,2.48.46,5.57,5.57,0,0,1,2,1.36,6.76,6.76,0,0,1,1.49,2.34A8.2,8.2,0,0,1,55.26,48.44Zm-2.11.1a7.41,7.41,0,0,0-.41-2.42,4.74,4.74,0,0,0-1.24-2,3.59,3.59,0,0,0-1.22-.78,4.29,4.29,0,0,0-1.47-.26,3.84,3.84,0,0,0-1.58.29,3.91,3.91,0,0,0-1.27.9,5.21,5.21,0,0,0-1.1,1.82,6.67,6.67,0,0,0-.4,2.3,7.27,7.27,0,0,0,.41,2.47,4.67,4.67,0,0,0,1.32,1.94,3.45,3.45,0,0,0,1.18.71,4.25,4.25,0,0,0,1.43.24,4,4,0,0,0,1.55-.29,3.63,3.63,0,0,0,1.25-.84,4.88,4.88,0,0,0,1.15-1.85A6.37,6.37,0,0,0,53.15,48.54Z"/><path class="d" d="M69.76,55.11h-2V53.57a18.09,18.09,0,0,1-2.3,1.25,6.5,6.5,0,0,1-2.71.64,3.76,3.76,0,0,1-2.85-1.08,4.25,4.25,0,0,1-1-3c0-.7,0-1.54,0-2.51s0-1.67,0-2.11c0-.8,0-1.79,0-3s0-1.84,0-2H60.9c0,.12,0,.75,0,1.9s0,2.07,0,2.76,0,1.36,0,2.27,0,1.54,0,1.92a4.15,4.15,0,0,0,.54,2.28,1.92,1.92,0,0,0,1.66.73A6.34,6.34,0,0,0,65.65,53a13,13,0,0,0,2.07-1.1c0-.11,0-.6,0-1.46s0-2,0-3.24c0-.92,0-2,0-3.31s0-2,0-2.11h2.08c0,.15,0,.65,0,1.49s0,2.27,0,4.29c0,1.13,0,2.13,0,3S69.74,52.92,69.76,55.11Z"/><path class="d" d="M81.85,51.25A3.2,3.2,0,0,1,81.37,53a3.68,3.68,0,0,1-1.24,1.24,6.11,6.11,0,0,1-1.91.76,10.72,10.72,0,0,1-2.43.26c-.43,0-.88,0-1.34-.06l-.79-.08-.08-1.72.92.07q.8.06,1.59.06c.3,0,.7,0,1.18-.08a3.91,3.91,0,0,0,1.2-.29,2.37,2.37,0,0,0,1-.71,1.65,1.65,0,0,0,.31-1,1.33,1.33,0,0,0-.27-.87,3.47,3.47,0,0,0-.77-.66,9.3,9.3,0,0,0-1.44-.75,14.53,14.53,0,0,1-1.54-.78,4,4,0,0,1-1.35-1.27,3.19,3.19,0,0,1-.47-1.72,3,3,0,0,1,.54-1.75,3.86,3.86,0,0,1,1.43-1.25,5.17,5.17,0,0,1,1.73-.56,11.6,11.6,0,0,1,1.82-.14l1.33,0,.59,0,.15,1.75c-.07,0-.34,0-.82,0s-1-.05-1.58-.05a6.08,6.08,0,0,0-1.15.1,3.38,3.38,0,0,0-.93.31,1.92,1.92,0,0,0-.82.7,1.54,1.54,0,0,0-.24.79,1.32,1.32,0,0,0,.34.91,3.18,3.18,0,0,0,.81.64c.36.21.85.46,1.48.75s1.08.53,1.36.7a4.82,4.82,0,0,1,1.41,1.3A2.91,2.91,0,0,1,81.85,51.25Z"/><path class="d" d="M95.85,48H86.32a5.77,5.77,0,0,0,.59,2.56,4.83,4.83,0,0,0,1.78,1.93,5.66,5.66,0,0,0,1.74.73,9.4,9.4,0,0,0,2.35.25c.5,0,1,0,1.37,0l.78,0-.24,1.75-.7,0c-.4,0-.86,0-1.4,0a11,11,0,0,1-3.67-.55,6.57,6.57,0,0,1-4-3.57,6.33,6.33,0,0,1-.6-2.78,7.74,7.74,0,0,1,.45-2.71,7.59,7.59,0,0,1,1.34-2.26A5.18,5.18,0,0,1,88,41.92a6,6,0,0,1,2.4-.49,5.88,5.88,0,0,1,2.17.37,4.44,4.44,0,0,1,1.65,1.12A5.73,5.73,0,0,1,95.43,45,9.81,9.81,0,0,1,95.85,48Zm-2-1.48a4.4,4.4,0,0,0-1.12-2.56A3.16,3.16,0,0,0,90.31,43a3.42,3.42,0,0,0-2.46.94,5,5,0,0,0-1.37,2.55Z"/><path class="d" d="M28.88,88.11H26.79c0-.1,0-1.39,0-3.85s0-4.51,0-6.14c0-1,0-2.36,0-4s0-3.39-.05-5.37h2.09c0,1.35,0,2.92,0,4.7s0,3.28,0,4.5q0,4,0,7C28.87,87,28.88,88,28.88,88.11Z"/><path class="d" d="M36.19,72.22H33.87V70h2.32Zm-.12,15.89H34c0-.14,0-1,0-2.59s0-2.91,0-3.94v-3c0-1.09,0-2.36,0-3.82h2.08c0,1.27,0,2.45,0,3.56s0,2.08,0,2.94c0,2,0,3.69,0,4.93S36.07,88.08,36.07,88.11Z"/><path class="d" d="M51.12,74.65c0,.2,0,1.07,0,2.62s0,3,0,4.41c0,.95,0,1.92,0,2.9s0,1.89,0,2.7a6.79,6.79,0,0,1-.77,3.54,5.54,5.54,0,0,1-2.19,2,10.9,10.9,0,0,1-2.73.92,19.7,19.7,0,0,1-3.9.33l-.21-1.67a27.41,27.41,0,0,0,2.76-.17,9.74,9.74,0,0,0,2.23-.5,4.15,4.15,0,0,0,2.15-1.54,4.39,4.39,0,0,0,.63-2.33h-.63a14.63,14.63,0,0,1-3.23-.37,8,8,0,0,1-2.83-1.19,6,6,0,0,1-1.89-2,6.15,6.15,0,0,1-.72-3.1,5.42,5.42,0,0,1,1-3.26,7.08,7.08,0,0,1,2.72-2.24,9.14,9.14,0,0,1,2.64-.82,21.29,21.29,0,0,1,3.46-.24h1.52Zm-2,7c0-.63,0-1.42,0-2.37s0-1.93,0-3h-.34a12.41,12.41,0,0,0-2.15.16,8.43,8.43,0,0,0-1.93.59,4.44,4.44,0,0,0-2,1.7,4.55,4.55,0,0,0-.71,2.53,4.25,4.25,0,0,0,.7,2.47,4.59,4.59,0,0,0,1.89,1.59,8.72,8.72,0,0,0,1.87.62,10.15,10.15,0,0,0,2.25.24h.48c0-.11,0-.59,0-1.47S49.1,82.86,49.1,81.66Z"/><path class="d" d="M66.84,88.11H64.76q0-.39,0-2.37c0-1.33,0-2.2,0-2.62v-2c0-.89,0-1.54,0-2A3.65,3.65,0,0,0,64.21,77a2.31,2.31,0,0,0-1.87-.66,5.68,5.68,0,0,0-1.93.45A16.25,16.25,0,0,0,57.93,78L58,88.11H55.9c0-.34,0-1.72,0-4.14s0-4.42,0-6c0-1,0-2.3,0-3.86s0-3.33-.05-5.34H58l-.06,7.5h0A19.48,19.48,0,0,1,61,74.84a6.66,6.66,0,0,1,2.06-.41,3.59,3.59,0,0,1,2.71,1.06,4,4,0,0,1,1,2.91c0,1.11,0,2.06,0,2.87s0,1.45,0,2q0,1.2,0,2.76C66.82,87,66.84,87.73,66.84,88.11Z"/><path class="d" d="M78.84,86.48l-.24,1.67-.45,0h-.63a6.34,6.34,0,0,1-4.08-1.12,4.19,4.19,0,0,1-1.39-3.46c0-1,0-2,0-3.14s0-2.5,0-4.15H69.88V74.77h2.33V71.65h1.91v3.12h4.72v1.55H74.12c0,.18,0,.73,0,1.64s0,1.59,0,2v3.27A3,3,0,0,0,75,85.74a4.44,4.44,0,0,0,2.84.75h1Z"/><path class="d" d="M89.89,76.33a22.69,22.69,0,0,0-2.22.72c-1,.37-2.15.87-3.45,1.48,0,.1,0,.54,0,1.33s0,1.51,0,2.19c0,1,0,2.27,0,3.69s0,2.22,0,2.37H82.18c0-.14,0-.64,0-1.47s0-2.26,0-4.29c0-.81,0-2,0-3.42s0-2.86,0-4.16h2v2h0a30.82,30.82,0,0,1,2.94-1.46,16.74,16.74,0,0,1,2.32-.85Z"/><path class="e" d="M56.26,128.22a1.67,1.67,0,0,0,1.91,0c3.8-2.23,7.63-4.42,11.46-6.62Q90,109.87,110.29,98.16a2.5,2.5,0,0,0,1.46-2.49q-.06-29.92,0-59.86a2.42,2.42,0,0,0-1.4-2.42c-5-2.81-9.94-5.69-14.9-8.55Q76.8,14.05,58.15,3.26a1.7,1.7,0,0,0-1.92,0Q44.44,10.12,32.65,16.92,18.36,25.17,4,33.41a2.34,2.34,0,0,0-1.37,2.32c0,10,0,19.92,0,29.88s0,19.84,0,29.76a3,3,0,0,0,1.78,3c9.85,5.62,19.66,11.3,29.49,17Q45.09,121.76,56.26,128.22Z"/><g class="f"><path class="d" d="M30.68,43.08c-1,2.82-1.87,5.68-1.61,8.72.18,2.14.19,4.33,1.1,6.34.62,1.36,1.32,2.68,2.06,4,.54,1,1.2,1.82,1.8,2.73a10.45,10.45,0,0,0,5.49,3.87,29.11,29.11,0,0,0,4,.58,40.84,40.84,0,0,0,7.81.34c2,0,4.06.28,6.09.44,1,.07,2,.21,3,.22,5.82.07,11.63.15,17.44.14,3.2,0,6.39-.18,9.58-.24.94,0,1.89.12,2.83.18.46,0,.91.08,1.37.08A1.44,1.44,0,0,0,93,69.33a2,2,0,0,0,.13-.79c-.32-3.19-.29-6.44-1.47-9.5A14.71,14.71,0,0,0,86.76,53c-1.94-1.56-3.89-3.12-5.91-4.59-1.27-.92-2.66-1.67-4-2.49s-2.51-1.55-3.79-2.29A46.2,46.2,0,0,0,62.31,39c-3.54-1-7.09-2-10.68-2.7a21.37,21.37,0,0,0-5.71-.24,34.05,34.05,0,0,0-6.28,1,16.09,16.09,0,0,0-9,6Z"/><path class="d" d="M34.06,79.3c-.75,1.14-1.5,2.27-2.22,3.41a11.13,11.13,0,0,0-1.46,5.18,2,2,0,0,0,1.44,1.83A29.49,29.49,0,0,1,40,93.3a7,7,0,0,0,2.4.81c1.47.28,3,.44,4.44.65a4.07,4.07,0,0,1,1.07.15,7.26,7.26,0,0,0,3.91.45,24.83,24.83,0,0,1,2.59,0c2.93,0,5.86-.14,8.79-.13,2.29,0,4.58.16,6.86.24.24,0,.48,0,.72,0,.91,0,1.83,0,2.73,0A5.66,5.66,0,0,0,76.31,95l6.8-2.72c1.59-.63,3.21-1.21,4.79-1.86,2.26-.94,3.36-2.85,4.06-5a27.61,27.61,0,0,0,1.22-7.72c0-1.72-.42-2.48-2.27-3.19A9.6,9.6,0,0,0,88,73.85c-4.28-.22-8.56-.45-12.84-.48-9.92-.09-19.83-.07-29.74-.09-.6,0-1.21.11-1.81.07-1.36-.07-2.72-.24-4.08-.29C37.66,73,35.82,73,34,73a20.83,20.83,0,0,0-2.09,0,16.5,16.5,0,0,0-1.84.33,1.53,1.53,0,0,1-.41.07c-1.18-.09-2.34-.21-3.52-.28-.62,0-.95.23-1.14.93a21.85,21.85,0,0,1-1.22,2.93c-.3.69-.66,1.35-.91,2-.46,1.32-.16,2,1.19,2.83A2.31,2.31,0,0,0,27,81.62c.38-.36.69-.8,1-1.2a3.88,3.88,0,0,1,.39-.42c.39-.37.76-.76,1.17-1.1s.62-.55.87-.51C31.64,78.63,32.82,79,34.06,79.3Z"/><path class="d" d="M11.32,56.79l.94-1c.07.94.12,1.81.2,2.67a7.11,7.11,0,0,1-1.2,4.4,8,8,0,0,0-1.52,4.09,1.57,1.57,0,0,0,.44,1,6.18,6.18,0,0,1,2.44,5.47c0,.48,0,1,0,1.45a3.49,3.49,0,0,0,.87,2.33c.4.49.82.73,1.42.25a.75.75,0,0,1,.68,0,6.65,6.65,0,0,1,1,.83,2.32,2.32,0,0,0,3.33.13,38.15,38.15,0,0,0,2.73-3.09,2.86,2.86,0,0,0,.39-.93c.22-.66.43-1.33.65-2a3.26,3.26,0,0,0-.43-2.58,11.22,11.22,0,0,1-1.44-4.31,22.8,22.8,0,0,1,.08-2.74c.06-.9-.06-1.15-.95-1.15a26.8,26.8,0,0,0-2.67.26c-.32,0-.65,0-1,0l-.05-.28c.42-.2.84-.42,1.27-.59a12.54,12.54,0,0,0,6.53-5.91,18,18,0,0,0,1.13-3.19q.32-1,.54-1.95c.07-.31.15-.77,0-1-.84-1-.48-2.06-.18-3.11.22-.74.78-1.5.06-2.22a2.65,2.65,0,0,0-2.77-.65,29,29,0,0,1-3.55.82,9.26,9.26,0,0,0-4.37,2.74A16.3,16.3,0,0,0,11.11,56a3.72,3.72,0,0,0,0,.67Z"/><path class="d" d="M99.86,74.77a12.87,12.87,0,0,0,1.62-.68,1.32,1.32,0,0,0,.53-.8.75.75,0,0,0-.5-1c-.39-.12-.78-.23-1.16-.37a1,1,0,0,1-.56-.51c.72.13,1.45.28,2.18.38a2.33,2.33,0,0,0,2.51-1.71,7.56,7.56,0,0,0-1.84-6.67,1,1,0,0,0-.75-.3c-.14,0-.25.38-.37.59,0,0,0-.06,0-.11a2.8,2.8,0,0,0-1.64-2.76,24.16,24.16,0,0,0-3.91-1.66,1.86,1.86,0,0,0-1.9.43,1.31,1.31,0,0,1-.24.17c-1.17.81-1.05.79-.88,2.19a46.11,46.11,0,0,1,.46,6.93c-.06,1.55.47,1.66,1.58,1.62a2,2,0,0,0,.63.42c.92.2,1.86.31,2.78.51a1.3,1.3,0,0,1,1.08,1.23c-.72.12-1.4.26-2.09.33s-1.31.08-2,.12v.29l1.75.23a5.36,5.36,0,0,1,1,.14c.18.07.31.31.46.47-.19.13-.35.35-.55.39-.82.12-1.64.19-2.45.28-.55.07-1,.17-.58,1a2.31,2.31,0,0,0-.4-.16,2.5,2.5,0,0,0-1.06-.11c-.17.06-.26.6-.22.9A31.49,31.49,0,0,1,93.07,84c0,.3-.09.6-.1.72.75.34,1.4.59,2,.92a3.9,3.9,0,0,0,4.85-1.42,1.26,1.26,0,0,1,.49-.57l-.5,1.51.21.1c.71-.65,1.65-1.14,1.44-2.53.55.7,1,.53,1.35.07a7.55,7.55,0,0,0,1.6-6.67,2.29,2.29,0,0,0-2.77-1.63l-1.74.38Z"/><path class="d" d="M37.21,70.23a6.42,6.42,0,0,0-.57-.44c-1.9-1.24-3-3.22-4.36-4.9a16.64,16.64,0,0,1-3.14-6.31c-.05-.2-.35-.39-.57-.46s-.56,0-.84-.15h1.33l-.39-1c-1.07.68-2.11,1.23-3,1.94a7.63,7.63,0,0,0-3.13,4.46c-.43,2,.52,4.79,2.18,5.78a8.31,8.31,0,0,0,1.78.48c.51.16,1,.37,1.5.57a3.25,3.25,0,0,0,1,.41,19.52,19.52,0,0,0,4.25-.09,28,28,0,0,1,3.67-.19A2.12,2.12,0,0,0,37.21,70.23Z"/><path class="d" d="M17.13,83.71c-.42.26-1.09.44-1.35.87a1.31,1.31,0,0,0,.6,1.76,19.29,19.29,0,0,0,2.73,1.46c.75.32,1.57.48,2.35.73a1.27,1.27,0,0,0,1.47-1.84,3.37,3.37,0,0,0-2.52-2.15A31,31,0,0,1,17.13,83.71Z"/><path class="d" d="M30.66,43.1c-.14-.13-.27-.35-.41-.36a5.31,5.31,0,0,0-3.21.73L29.17,46c.46-.91,1-1.93,1.51-3Z"/></g></g></svg>